<mxfile host="app.diagrams.net" modified="2022-11-14T21:06:15.099Z" agent="5.0 (Windows)" etag="qSNzKDDJysL_GOxYBKH-" version="20.5.3" type="github">
  <diagram id="Rop7i6dLNeZgeTof43fC" name="Seite-1">
    <mxGraphModel dx="2377" dy="824" grid="1" gridSize="10" guides="1" tooltips="1" connect="1" arrows="1" fold="1" page="1" pageScale="1" pageWidth="827" pageHeight="1169" math="1" shadow="0">
      <root>
        <mxCell id="0" />
        <mxCell id="1" parent="0" />
        <mxCell id="P1NWaYyS0jE01K3hE17n-1" value="$$In_1$$" style="ellipse;whiteSpace=wrap;html=1;aspect=fixed;" parent="1" vertex="1">
          <mxGeometry x="80" y="160" width="80" height="80" as="geometry" />
        </mxCell>
        <mxCell id="P1NWaYyS0jE01K3hE17n-2" value="$$In_2$$" style="ellipse;whiteSpace=wrap;html=1;aspect=fixed;" parent="1" vertex="1">
          <mxGeometry x="80" y="320" width="80" height="80" as="geometry" />
        </mxCell>
        <mxCell id="P1NWaYyS0jE01K3hE17n-5" value="$$h_1$$" style="ellipse;whiteSpace=wrap;html=1;aspect=fixed;" parent="1" vertex="1">
          <mxGeometry x="340" y="160" width="80" height="80" as="geometry" />
        </mxCell>
        <mxCell id="P1NWaYyS0jE01K3hE17n-6" value="$$h_2$$" style="ellipse;whiteSpace=wrap;html=1;aspect=fixed;" parent="1" vertex="1">
          <mxGeometry x="340" y="320" width="80" height="80" as="geometry" />
        </mxCell>
        <mxCell id="P1NWaYyS0jE01K3hE17n-8" value="" style="endArrow=classic;html=1;rounded=0;exitX=1;exitY=0.5;exitDx=0;exitDy=0;entryX=0;entryY=0.5;entryDx=0;entryDy=0;" parent="1" source="P1NWaYyS0jE01K3hE17n-1" target="P1NWaYyS0jE01K3hE17n-5" edge="1">
          <mxGeometry width="50" height="50" relative="1" as="geometry">
            <mxPoint x="390" y="450" as="sourcePoint" />
            <mxPoint x="440" y="400" as="targetPoint" />
          </mxGeometry>
        </mxCell>
        <mxCell id="P1NWaYyS0jE01K3hE17n-9" value="" style="endArrow=classic;html=1;rounded=0;exitX=1;exitY=1;exitDx=0;exitDy=0;entryX=0;entryY=0;entryDx=0;entryDy=0;" parent="1" source="P1NWaYyS0jE01K3hE17n-1" target="P1NWaYyS0jE01K3hE17n-6" edge="1">
          <mxGeometry width="50" height="50" relative="1" as="geometry">
            <mxPoint x="390" y="450" as="sourcePoint" />
            <mxPoint x="440" y="400" as="targetPoint" />
          </mxGeometry>
        </mxCell>
        <mxCell id="P1NWaYyS0jE01K3hE17n-11" value="" style="endArrow=classic;html=1;rounded=0;entryX=0;entryY=1;entryDx=0;entryDy=0;exitX=1;exitY=0;exitDx=0;exitDy=0;" parent="1" source="P1NWaYyS0jE01K3hE17n-2" target="P1NWaYyS0jE01K3hE17n-5" edge="1">
          <mxGeometry width="50" height="50" relative="1" as="geometry">
            <mxPoint x="160" y="360" as="sourcePoint" />
            <mxPoint x="440" y="400" as="targetPoint" />
          </mxGeometry>
        </mxCell>
        <mxCell id="P1NWaYyS0jE01K3hE17n-12" value="" style="endArrow=classic;html=1;rounded=0;exitX=1;exitY=0.5;exitDx=0;exitDy=0;entryX=0;entryY=0.5;entryDx=0;entryDy=0;" parent="1" source="P1NWaYyS0jE01K3hE17n-2" target="P1NWaYyS0jE01K3hE17n-6" edge="1">
          <mxGeometry width="50" height="50" relative="1" as="geometry">
            <mxPoint x="390" y="450" as="sourcePoint" />
            <mxPoint x="440" y="400" as="targetPoint" />
          </mxGeometry>
        </mxCell>
        <mxCell id="P1NWaYyS0jE01K3hE17n-13" value="" style="endArrow=classic;html=1;rounded=0;" parent="1" edge="1">
          <mxGeometry width="50" height="50" relative="1" as="geometry">
            <mxPoint y="360" as="sourcePoint" />
            <mxPoint x="80" y="360" as="targetPoint" />
          </mxGeometry>
        </mxCell>
        <mxCell id="P1NWaYyS0jE01K3hE17n-14" value="" style="endArrow=classic;html=1;rounded=0;entryX=0;entryY=0.5;entryDx=0;entryDy=0;" parent="1" target="P1NWaYyS0jE01K3hE17n-1" edge="1">
          <mxGeometry width="50" height="50" relative="1" as="geometry">
            <mxPoint y="200" as="sourcePoint" />
            <mxPoint x="440" y="400" as="targetPoint" />
          </mxGeometry>
        </mxCell>
        <mxCell id="P1NWaYyS0jE01K3hE17n-15" value="&lt;b&gt;&lt;font style=&quot;font-size: 18px;&quot;&gt;Input Layer&lt;/font&gt;&lt;/b&gt;" style="text;html=1;strokeColor=none;fillColor=none;align=center;verticalAlign=middle;whiteSpace=wrap;rounded=0;" parent="1" vertex="1">
          <mxGeometry x="62.5" y="90" width="115" height="50" as="geometry" />
        </mxCell>
        <mxCell id="P1NWaYyS0jE01K3hE17n-16" value="&lt;b&gt;&lt;font style=&quot;font-size: 18px;&quot;&gt;Hidden Layer&lt;/font&gt;&lt;/b&gt;" style="text;html=1;strokeColor=none;fillColor=none;align=center;verticalAlign=middle;whiteSpace=wrap;rounded=0;" parent="1" vertex="1">
          <mxGeometry x="298.75" y="90" width="162.5" height="50" as="geometry" />
        </mxCell>
        <mxCell id="P1NWaYyS0jE01K3hE17n-17" value="$$x_1$$" style="text;html=1;strokeColor=none;fillColor=none;align=center;verticalAlign=middle;whiteSpace=wrap;rounded=0;" parent="1" vertex="1">
          <mxGeometry y="170" width="60" height="30" as="geometry" />
        </mxCell>
        <mxCell id="P1NWaYyS0jE01K3hE17n-18" value="$$x_2$$" style="text;html=1;strokeColor=none;fillColor=none;align=center;verticalAlign=middle;whiteSpace=wrap;rounded=0;" parent="1" vertex="1">
          <mxGeometry y="330" width="60" height="30" as="geometry" />
        </mxCell>
        <mxCell id="P1NWaYyS0jE01K3hE17n-21" value="$$w^{a}_{11}$$" style="text;html=1;strokeColor=none;fillColor=none;align=center;verticalAlign=middle;whiteSpace=wrap;rounded=0;" parent="1" vertex="1">
          <mxGeometry x="266" y="169" width="60" height="30" as="geometry" />
        </mxCell>
        <mxCell id="P1NWaYyS0jE01K3hE17n-22" value="$$w^{a}_{21}$$" style="text;html=1;strokeColor=none;fillColor=none;align=center;verticalAlign=middle;whiteSpace=wrap;rounded=0;" parent="1" vertex="1">
          <mxGeometry x="266" y="273" width="60" height="30" as="geometry" />
        </mxCell>
        <mxCell id="P1NWaYyS0jE01K3hE17n-24" value="$$w^{a}_{12}$$" style="text;html=1;strokeColor=none;fillColor=none;align=center;verticalAlign=middle;whiteSpace=wrap;rounded=0;" parent="1" vertex="1">
          <mxGeometry x="292" y="209" width="60" height="30" as="geometry" />
        </mxCell>
        <mxCell id="P1NWaYyS0jE01K3hE17n-25" value="$$w^{a}_{22}$$" style="text;html=1;strokeColor=none;fillColor=none;align=center;verticalAlign=middle;whiteSpace=wrap;rounded=0;" parent="1" vertex="1">
          <mxGeometry x="266" y="334" width="60" height="30" as="geometry" />
        </mxCell>
        <mxCell id="dMvJnV1jKj8tG0fJmy0w-1" value="$$Out_1$$" style="ellipse;whiteSpace=wrap;html=1;aspect=fixed;" vertex="1" parent="1">
          <mxGeometry x="600" y="160" width="80" height="80" as="geometry" />
        </mxCell>
        <mxCell id="dMvJnV1jKj8tG0fJmy0w-2" value="$$Out_2$$" style="ellipse;whiteSpace=wrap;html=1;aspect=fixed;" vertex="1" parent="1">
          <mxGeometry x="600" y="320" width="80" height="80" as="geometry" />
        </mxCell>
        <mxCell id="dMvJnV1jKj8tG0fJmy0w-3" value="" style="endArrow=classic;html=1;rounded=0;exitX=1;exitY=0.5;exitDx=0;exitDy=0;entryX=0;entryY=0.5;entryDx=0;entryDy=0;" edge="1" parent="1" source="P1NWaYyS0jE01K3hE17n-5" target="dMvJnV1jKj8tG0fJmy0w-1">
          <mxGeometry width="50" height="50" relative="1" as="geometry">
            <mxPoint x="390" y="400" as="sourcePoint" />
            <mxPoint x="440" y="350" as="targetPoint" />
          </mxGeometry>
        </mxCell>
        <mxCell id="dMvJnV1jKj8tG0fJmy0w-4" value="" style="endArrow=classic;html=1;rounded=0;entryX=0;entryY=0.5;entryDx=0;entryDy=0;exitX=1;exitY=0.5;exitDx=0;exitDy=0;" edge="1" parent="1" source="P1NWaYyS0jE01K3hE17n-6" target="dMvJnV1jKj8tG0fJmy0w-2">
          <mxGeometry width="50" height="50" relative="1" as="geometry">
            <mxPoint x="390" y="400" as="sourcePoint" />
            <mxPoint x="440" y="350" as="targetPoint" />
          </mxGeometry>
        </mxCell>
        <mxCell id="dMvJnV1jKj8tG0fJmy0w-5" value="" style="endArrow=classic;html=1;rounded=0;entryX=0;entryY=0;entryDx=0;entryDy=0;exitX=1;exitY=1;exitDx=0;exitDy=0;" edge="1" parent="1" source="P1NWaYyS0jE01K3hE17n-5" target="dMvJnV1jKj8tG0fJmy0w-2">
          <mxGeometry width="50" height="50" relative="1" as="geometry">
            <mxPoint x="390" y="400" as="sourcePoint" />
            <mxPoint x="440" y="350" as="targetPoint" />
          </mxGeometry>
        </mxCell>
        <mxCell id="dMvJnV1jKj8tG0fJmy0w-6" value="" style="endArrow=classic;html=1;rounded=0;entryX=0;entryY=1;entryDx=0;entryDy=0;exitX=1;exitY=0;exitDx=0;exitDy=0;" edge="1" parent="1" source="P1NWaYyS0jE01K3hE17n-6" target="dMvJnV1jKj8tG0fJmy0w-1">
          <mxGeometry width="50" height="50" relative="1" as="geometry">
            <mxPoint x="390" y="400" as="sourcePoint" />
            <mxPoint x="440" y="350" as="targetPoint" />
          </mxGeometry>
        </mxCell>
        <mxCell id="dMvJnV1jKj8tG0fJmy0w-11" value="$$w^{b}_{11}$$" style="text;html=1;strokeColor=none;fillColor=none;align=center;verticalAlign=middle;whiteSpace=wrap;rounded=0;" vertex="1" parent="1">
          <mxGeometry x="525" y="169" width="60" height="30" as="geometry" />
        </mxCell>
        <mxCell id="dMvJnV1jKj8tG0fJmy0w-12" value="$$w^{b}_{21}$$" style="text;html=1;strokeColor=none;fillColor=none;align=center;verticalAlign=middle;whiteSpace=wrap;rounded=0;" vertex="1" parent="1">
          <mxGeometry x="525" y="273" width="60" height="30" as="geometry" />
        </mxCell>
        <mxCell id="dMvJnV1jKj8tG0fJmy0w-13" value="$$w^{b}_{12}$$" style="text;html=1;strokeColor=none;fillColor=none;align=center;verticalAlign=middle;whiteSpace=wrap;rounded=0;" vertex="1" parent="1">
          <mxGeometry x="551" y="209" width="60" height="30" as="geometry" />
        </mxCell>
        <mxCell id="dMvJnV1jKj8tG0fJmy0w-14" value="$$w^{b}_{22}$$" style="text;html=1;strokeColor=none;fillColor=none;align=center;verticalAlign=middle;whiteSpace=wrap;rounded=0;" vertex="1" parent="1">
          <mxGeometry x="525" y="334" width="60" height="30" as="geometry" />
        </mxCell>
        <mxCell id="dMvJnV1jKj8tG0fJmy0w-16" value="&lt;b&gt;&lt;font style=&quot;font-size: 18px;&quot;&gt;Output Layer&lt;/font&gt;&lt;/b&gt;" style="text;html=1;strokeColor=none;fillColor=none;align=center;verticalAlign=middle;whiteSpace=wrap;rounded=0;" vertex="1" parent="1">
          <mxGeometry x="582.5" y="90" width="115" height="50" as="geometry" />
        </mxCell>
        <mxCell id="dMvJnV1jKj8tG0fJmy0w-23" value="" style="endArrow=classic;html=1;rounded=0;" edge="1" parent="1">
          <mxGeometry width="50" height="50" relative="1" as="geometry">
            <mxPoint x="680" y="360" as="sourcePoint" />
            <mxPoint x="760" y="360" as="targetPoint" />
          </mxGeometry>
        </mxCell>
        <mxCell id="dMvJnV1jKj8tG0fJmy0w-24" value="" style="endArrow=classic;html=1;rounded=0;entryX=0;entryY=0.5;entryDx=0;entryDy=0;" edge="1" parent="1">
          <mxGeometry width="50" height="50" relative="1" as="geometry">
            <mxPoint x="680" y="200" as="sourcePoint" />
            <mxPoint x="760" y="200" as="targetPoint" />
          </mxGeometry>
        </mxCell>
        <mxCell id="dMvJnV1jKj8tG0fJmy0w-25" value="$$y_1$$" style="text;html=1;strokeColor=none;fillColor=none;align=center;verticalAlign=middle;whiteSpace=wrap;rounded=0;" vertex="1" parent="1">
          <mxGeometry x="697" y="170" width="60" height="30" as="geometry" />
        </mxCell>
        <mxCell id="dMvJnV1jKj8tG0fJmy0w-26" value="$$y_2$$" style="text;html=1;strokeColor=none;fillColor=none;align=center;verticalAlign=middle;whiteSpace=wrap;rounded=0;" vertex="1" parent="1">
          <mxGeometry x="697" y="330" width="60" height="30" as="geometry" />
        </mxCell>
      </root>
    </mxGraphModel>
  </diagram>
</mxfile>
